<mxfile host="Electron" agent="Mozilla/5.0 (X11; Linux x86_64) AppleWebKit/537.36 (KHTML, like Gecko) draw.io/24.7.17 Chrome/128.0.6613.36 Electron/32.0.1 Safari/537.36" version="24.7.17">
  <diagram name="Page-1" id="pjoxHqjW_8tw6Cnvn1Yh">
    <mxGraphModel dx="1114" dy="1027" grid="1" gridSize="10" guides="1" tooltips="1" connect="1" arrows="1" fold="1" page="1" pageScale="1" pageWidth="850" pageHeight="1100" math="0" shadow="0">
      <root>
        <mxCell id="0" />
        <mxCell id="1" parent="0" />
        <mxCell id="VnXQurNlEBm_rqx2Kqo_-55" style="edgeStyle=orthogonalEdgeStyle;rounded=0;orthogonalLoop=1;jettySize=auto;html=1;dashed=1;endArrow=open;endFill=0;" edge="1" parent="1" source="VnXQurNlEBm_rqx2Kqo_-1" target="VnXQurNlEBm_rqx2Kqo_-2">
          <mxGeometry relative="1" as="geometry">
            <Array as="points">
              <mxPoint x="180" y="365" />
              <mxPoint x="180" y="170" />
            </Array>
          </mxGeometry>
        </mxCell>
        <mxCell id="VnXQurNlEBm_rqx2Kqo_-61" value="&lt;font style=&quot;font-size: 9px;&quot;&gt;&amp;lt;&amp;lt;uses&amp;gt;&amp;gt;&lt;/font&gt;" style="edgeLabel;html=1;align=center;verticalAlign=middle;resizable=0;points=[];" vertex="1" connectable="0" parent="VnXQurNlEBm_rqx2Kqo_-55">
          <mxGeometry x="0.7996" y="-1" relative="1" as="geometry">
            <mxPoint y="-11" as="offset" />
          </mxGeometry>
        </mxCell>
        <mxCell id="VnXQurNlEBm_rqx2Kqo_-56" style="edgeStyle=orthogonalEdgeStyle;rounded=0;orthogonalLoop=1;jettySize=auto;html=1;dashed=1;endArrow=open;endFill=0;" edge="1" parent="1" source="VnXQurNlEBm_rqx2Kqo_-1" target="VnXQurNlEBm_rqx2Kqo_-6">
          <mxGeometry relative="1" as="geometry">
            <Array as="points">
              <mxPoint x="180" y="365" />
              <mxPoint x="180" y="288" />
            </Array>
          </mxGeometry>
        </mxCell>
        <mxCell id="VnXQurNlEBm_rqx2Kqo_-62" value="&lt;font style=&quot;font-size: 9px;&quot;&gt;&amp;lt;&amp;lt;uses&amp;gt;&amp;gt;&lt;/font&gt;" style="edgeLabel;html=1;align=center;verticalAlign=middle;resizable=0;points=[];" vertex="1" connectable="0" parent="VnXQurNlEBm_rqx2Kqo_-56">
          <mxGeometry x="0.713" y="-1" relative="1" as="geometry">
            <mxPoint x="-3" y="-10" as="offset" />
          </mxGeometry>
        </mxCell>
        <mxCell id="VnXQurNlEBm_rqx2Kqo_-57" style="edgeStyle=orthogonalEdgeStyle;rounded=0;orthogonalLoop=1;jettySize=auto;html=1;dashed=1;endArrow=open;endFill=0;" edge="1" parent="1" source="VnXQurNlEBm_rqx2Kqo_-1" target="VnXQurNlEBm_rqx2Kqo_-10">
          <mxGeometry relative="1" as="geometry">
            <Array as="points">
              <mxPoint x="180" y="365" />
              <mxPoint x="180" y="414" />
            </Array>
          </mxGeometry>
        </mxCell>
        <mxCell id="VnXQurNlEBm_rqx2Kqo_-65" value="&lt;font style=&quot;font-size: 9px;&quot;&gt;&amp;lt;&amp;lt;uses&amp;gt;&amp;gt;&lt;/font&gt;" style="edgeLabel;html=1;align=center;verticalAlign=middle;resizable=0;points=[];" vertex="1" connectable="0" parent="VnXQurNlEBm_rqx2Kqo_-57">
          <mxGeometry x="0.5688" relative="1" as="geometry">
            <mxPoint x="4" y="-14" as="offset" />
          </mxGeometry>
        </mxCell>
        <mxCell id="VnXQurNlEBm_rqx2Kqo_-59" style="edgeStyle=orthogonalEdgeStyle;rounded=0;orthogonalLoop=1;jettySize=auto;html=1;dashed=1;endArrow=open;endFill=0;" edge="1" parent="1" source="VnXQurNlEBm_rqx2Kqo_-1" target="VnXQurNlEBm_rqx2Kqo_-14">
          <mxGeometry relative="1" as="geometry">
            <Array as="points">
              <mxPoint x="180" y="365" />
              <mxPoint x="180" y="559" />
            </Array>
          </mxGeometry>
        </mxCell>
        <mxCell id="VnXQurNlEBm_rqx2Kqo_-66" value="&lt;font style=&quot;font-size: 9px;&quot;&gt;&amp;lt;&amp;lt;uses&amp;gt;&amp;gt;&lt;/font&gt;" style="edgeLabel;html=1;align=center;verticalAlign=middle;resizable=0;points=[];" vertex="1" connectable="0" parent="VnXQurNlEBm_rqx2Kqo_-59">
          <mxGeometry x="0.7928" y="1" relative="1" as="geometry">
            <mxPoint x="1" y="-8" as="offset" />
          </mxGeometry>
        </mxCell>
        <mxCell id="VnXQurNlEBm_rqx2Kqo_-1" value="Analyst" style="html=1;whiteSpace=wrap;" vertex="1" parent="1">
          <mxGeometry x="20" y="340" width="110" height="50" as="geometry" />
        </mxCell>
        <mxCell id="VnXQurNlEBm_rqx2Kqo_-95" style="edgeStyle=orthogonalEdgeStyle;rounded=0;orthogonalLoop=1;jettySize=auto;html=1;dashed=1;endArrow=none;endFill=0;" edge="1" parent="1" source="VnXQurNlEBm_rqx2Kqo_-2" target="VnXQurNlEBm_rqx2Kqo_-30">
          <mxGeometry relative="1" as="geometry">
            <Array as="points">
              <mxPoint x="750" y="170" />
            </Array>
          </mxGeometry>
        </mxCell>
        <mxCell id="VnXQurNlEBm_rqx2Kqo_-2" value="ReportGenerator &amp;lt;&amp;lt;interface&amp;gt;&amp;gt;" style="swimlane;fontStyle=1;align=center;verticalAlign=top;childLayout=stackLayout;horizontal=1;startSize=26;horizontalStack=0;resizeParent=1;resizeParentMax=0;resizeLast=0;collapsible=1;marginBottom=0;whiteSpace=wrap;html=1;" vertex="1" parent="1">
          <mxGeometry x="240" y="140" width="320" height="60" as="geometry" />
        </mxCell>
        <mxCell id="VnXQurNlEBm_rqx2Kqo_-4" value="" style="line;strokeWidth=1;fillColor=none;align=left;verticalAlign=middle;spacingTop=-1;spacingLeft=3;spacingRight=3;rotatable=0;labelPosition=right;points=[];portConstraint=eastwest;strokeColor=inherit;" vertex="1" parent="VnXQurNlEBm_rqx2Kqo_-2">
          <mxGeometry y="26" width="320" height="8" as="geometry" />
        </mxCell>
        <mxCell id="VnXQurNlEBm_rqx2Kqo_-5" value="generate(network: Network): Report" style="text;strokeColor=none;fillColor=none;align=left;verticalAlign=top;spacingLeft=4;spacingRight=4;overflow=hidden;rotatable=0;points=[[0,0.5],[1,0.5]];portConstraint=eastwest;whiteSpace=wrap;html=1;" vertex="1" parent="VnXQurNlEBm_rqx2Kqo_-2">
          <mxGeometry y="34" width="320" height="26" as="geometry" />
        </mxCell>
        <mxCell id="VnXQurNlEBm_rqx2Kqo_-94" style="edgeStyle=orthogonalEdgeStyle;rounded=0;orthogonalLoop=1;jettySize=auto;html=1;dashed=1;endArrow=none;endFill=0;" edge="1" parent="1" source="VnXQurNlEBm_rqx2Kqo_-6" target="VnXQurNlEBm_rqx2Kqo_-30">
          <mxGeometry relative="1" as="geometry">
            <Array as="points">
              <mxPoint x="750" y="288" />
            </Array>
          </mxGeometry>
        </mxCell>
        <mxCell id="VnXQurNlEBm_rqx2Kqo_-6" value="DataImporter &amp;lt;&amp;lt;interface&amp;gt;&amp;gt;" style="swimlane;fontStyle=1;align=center;verticalAlign=top;childLayout=stackLayout;horizontal=1;startSize=26;horizontalStack=0;resizeParent=1;resizeParentMax=0;resizeLast=0;collapsible=1;marginBottom=0;whiteSpace=wrap;html=1;" vertex="1" parent="1">
          <mxGeometry x="240" y="258" width="320" height="60" as="geometry" />
        </mxCell>
        <mxCell id="VnXQurNlEBm_rqx2Kqo_-8" value="" style="line;strokeWidth=1;fillColor=none;align=left;verticalAlign=middle;spacingTop=-1;spacingLeft=3;spacingRight=3;rotatable=0;labelPosition=right;points=[];portConstraint=eastwest;strokeColor=inherit;" vertex="1" parent="VnXQurNlEBm_rqx2Kqo_-6">
          <mxGeometry y="26" width="320" height="8" as="geometry" />
        </mxCell>
        <mxCell id="VnXQurNlEBm_rqx2Kqo_-9" value="import(files: CsvFiles): Network" style="text;strokeColor=none;fillColor=none;align=left;verticalAlign=top;spacingLeft=4;spacingRight=4;overflow=hidden;rotatable=0;points=[[0,0.5],[1,0.5]];portConstraint=eastwest;whiteSpace=wrap;html=1;" vertex="1" parent="VnXQurNlEBm_rqx2Kqo_-6">
          <mxGeometry y="34" width="320" height="26" as="geometry" />
        </mxCell>
        <mxCell id="VnXQurNlEBm_rqx2Kqo_-93" style="edgeStyle=orthogonalEdgeStyle;rounded=0;orthogonalLoop=1;jettySize=auto;html=1;endArrow=none;endFill=0;dashed=1;" edge="1" parent="1" source="VnXQurNlEBm_rqx2Kqo_-10" target="VnXQurNlEBm_rqx2Kqo_-30">
          <mxGeometry relative="1" as="geometry">
            <Array as="points">
              <mxPoint x="630" y="390" />
              <mxPoint x="630" y="389" />
            </Array>
          </mxGeometry>
        </mxCell>
        <mxCell id="VnXQurNlEBm_rqx2Kqo_-10" value="NetworkVisualisation &amp;lt;&amp;lt;interface&amp;gt;&amp;gt;" style="swimlane;fontStyle=1;align=center;verticalAlign=top;childLayout=stackLayout;horizontal=1;startSize=26;horizontalStack=0;resizeParent=1;resizeParentMax=0;resizeLast=0;collapsible=1;marginBottom=0;whiteSpace=wrap;html=1;" vertex="1" parent="1">
          <mxGeometry x="240" y="358" width="320" height="130" as="geometry" />
        </mxCell>
        <mxCell id="VnXQurNlEBm_rqx2Kqo_-11" value="network: Network" style="text;strokeColor=none;fillColor=none;align=left;verticalAlign=top;spacingLeft=4;spacingRight=4;overflow=hidden;rotatable=0;points=[[0,0.5],[1,0.5]];portConstraint=eastwest;whiteSpace=wrap;html=1;" vertex="1" parent="VnXQurNlEBm_rqx2Kqo_-10">
          <mxGeometry y="26" width="320" height="26" as="geometry" />
        </mxCell>
        <mxCell id="VnXQurNlEBm_rqx2Kqo_-12" value="" style="line;strokeWidth=1;fillColor=none;align=left;verticalAlign=middle;spacingTop=-1;spacingLeft=3;spacingRight=3;rotatable=0;labelPosition=right;points=[];portConstraint=eastwest;strokeColor=inherit;" vertex="1" parent="VnXQurNlEBm_rqx2Kqo_-10">
          <mxGeometry y="52" width="320" height="8" as="geometry" />
        </mxCell>
        <mxCell id="VnXQurNlEBm_rqx2Kqo_-13" value="display()&lt;div&gt;inspect(vertex: Vertex)&lt;/div&gt;&lt;div&gt;inspect(edge: Edge)&lt;/div&gt;&lt;div&gt;inspect(channel: Channel):&lt;/div&gt;" style="text;strokeColor=none;fillColor=none;align=left;verticalAlign=top;spacingLeft=4;spacingRight=4;overflow=hidden;rotatable=0;points=[[0,0.5],[1,0.5]];portConstraint=eastwest;whiteSpace=wrap;html=1;" vertex="1" parent="VnXQurNlEBm_rqx2Kqo_-10">
          <mxGeometry y="60" width="320" height="70" as="geometry" />
        </mxCell>
        <mxCell id="VnXQurNlEBm_rqx2Kqo_-92" style="edgeStyle=orthogonalEdgeStyle;rounded=0;orthogonalLoop=1;jettySize=auto;html=1;endArrow=none;endFill=0;dashed=1;" edge="1" parent="1" source="VnXQurNlEBm_rqx2Kqo_-14" target="VnXQurNlEBm_rqx2Kqo_-30">
          <mxGeometry relative="1" as="geometry">
            <Array as="points">
              <mxPoint x="750" y="570" />
            </Array>
          </mxGeometry>
        </mxCell>
        <mxCell id="VnXQurNlEBm_rqx2Kqo_-96" style="edgeStyle=orthogonalEdgeStyle;rounded=0;orthogonalLoop=1;jettySize=auto;html=1;dashed=1;endArrow=none;endFill=0;" edge="1" parent="1" source="VnXQurNlEBm_rqx2Kqo_-14" target="VnXQurNlEBm_rqx2Kqo_-26">
          <mxGeometry relative="1" as="geometry">
            <Array as="points">
              <mxPoint x="650" y="570" />
              <mxPoint x="650" y="684" />
            </Array>
          </mxGeometry>
        </mxCell>
        <mxCell id="VnXQurNlEBm_rqx2Kqo_-14" value="OptimisationModel &amp;lt;&amp;lt;abstract&amp;gt;&amp;gt;" style="swimlane;fontStyle=1;align=center;verticalAlign=top;childLayout=stackLayout;horizontal=1;startSize=26;horizontalStack=0;resizeParent=1;resizeParentMax=0;resizeLast=0;collapsible=1;marginBottom=0;whiteSpace=wrap;html=1;" vertex="1" parent="1">
          <mxGeometry x="240" y="520" width="320" height="100" as="geometry" />
        </mxCell>
        <mxCell id="VnXQurNlEBm_rqx2Kqo_-15" value="network: Network" style="text;strokeColor=none;fillColor=none;align=left;verticalAlign=top;spacingLeft=4;spacingRight=4;overflow=hidden;rotatable=0;points=[[0,0.5],[1,0.5]];portConstraint=eastwest;whiteSpace=wrap;html=1;" vertex="1" parent="VnXQurNlEBm_rqx2Kqo_-14">
          <mxGeometry y="26" width="320" height="26" as="geometry" />
        </mxCell>
        <mxCell id="VnXQurNlEBm_rqx2Kqo_-16" value="" style="line;strokeWidth=1;fillColor=none;align=left;verticalAlign=middle;spacingTop=-1;spacingLeft=3;spacingRight=3;rotatable=0;labelPosition=right;points=[];portConstraint=eastwest;strokeColor=inherit;" vertex="1" parent="VnXQurNlEBm_rqx2Kqo_-14">
          <mxGeometry y="52" width="320" height="8" as="geometry" />
        </mxCell>
        <mxCell id="VnXQurNlEBm_rqx2Kqo_-17" value="findChannel(description: ChannelDescription): Channel" style="text;strokeColor=none;fillColor=none;align=left;verticalAlign=top;spacingLeft=4;spacingRight=4;overflow=hidden;rotatable=0;points=[[0,0.5],[1,0.5]];portConstraint=eastwest;whiteSpace=wrap;html=1;" vertex="1" parent="VnXQurNlEBm_rqx2Kqo_-14">
          <mxGeometry y="60" width="320" height="40" as="geometry" />
        </mxCell>
        <mxCell id="VnXQurNlEBm_rqx2Kqo_-91" style="edgeStyle=orthogonalEdgeStyle;rounded=0;orthogonalLoop=1;jettySize=auto;html=1;" edge="1" parent="1" source="VnXQurNlEBm_rqx2Kqo_-18" target="VnXQurNlEBm_rqx2Kqo_-14">
          <mxGeometry relative="1" as="geometry" />
        </mxCell>
        <mxCell id="VnXQurNlEBm_rqx2Kqo_-18" value="IntegerProgrammingModel" style="swimlane;fontStyle=1;align=center;verticalAlign=top;childLayout=stackLayout;horizontal=1;startSize=26;horizontalStack=0;resizeParent=1;resizeParentMax=0;resizeLast=0;collapsible=1;marginBottom=0;whiteSpace=wrap;html=1;" vertex="1" parent="1">
          <mxGeometry x="410" y="740" width="180" height="78" as="geometry" />
        </mxCell>
        <mxCell id="VnXQurNlEBm_rqx2Kqo_-19" value="params: IPModelParams" style="text;strokeColor=none;fillColor=none;align=left;verticalAlign=top;spacingLeft=4;spacingRight=4;overflow=hidden;rotatable=0;points=[[0,0.5],[1,0.5]];portConstraint=eastwest;whiteSpace=wrap;html=1;" vertex="1" parent="VnXQurNlEBm_rqx2Kqo_-18">
          <mxGeometry y="26" width="180" height="44" as="geometry" />
        </mxCell>
        <mxCell id="VnXQurNlEBm_rqx2Kqo_-20" value="" style="line;strokeWidth=1;fillColor=none;align=left;verticalAlign=middle;spacingTop=-1;spacingLeft=3;spacingRight=3;rotatable=0;labelPosition=right;points=[];portConstraint=eastwest;strokeColor=inherit;" vertex="1" parent="VnXQurNlEBm_rqx2Kqo_-18">
          <mxGeometry y="70" width="180" height="8" as="geometry" />
        </mxCell>
        <mxCell id="VnXQurNlEBm_rqx2Kqo_-90" style="edgeStyle=orthogonalEdgeStyle;rounded=0;orthogonalLoop=1;jettySize=auto;html=1;endArrow=block;endFill=1;" edge="1" parent="1" source="VnXQurNlEBm_rqx2Kqo_-22" target="VnXQurNlEBm_rqx2Kqo_-14">
          <mxGeometry relative="1" as="geometry" />
        </mxCell>
        <mxCell id="VnXQurNlEBm_rqx2Kqo_-22" value="DijkstraModel" style="swimlane;fontStyle=1;align=center;verticalAlign=top;childLayout=stackLayout;horizontal=1;startSize=26;horizontalStack=0;resizeParent=1;resizeParentMax=0;resizeLast=0;collapsible=1;marginBottom=0;whiteSpace=wrap;html=1;" vertex="1" parent="1">
          <mxGeometry x="210" y="740" width="180" height="78" as="geometry" />
        </mxCell>
        <mxCell id="VnXQurNlEBm_rqx2Kqo_-23" value="params: DijkstraModelParams" style="text;strokeColor=none;fillColor=none;align=left;verticalAlign=top;spacingLeft=4;spacingRight=4;overflow=hidden;rotatable=0;points=[[0,0.5],[1,0.5]];portConstraint=eastwest;whiteSpace=wrap;html=1;" vertex="1" parent="VnXQurNlEBm_rqx2Kqo_-22">
          <mxGeometry y="26" width="180" height="44" as="geometry" />
        </mxCell>
        <mxCell id="VnXQurNlEBm_rqx2Kqo_-24" value="" style="line;strokeWidth=1;fillColor=none;align=left;verticalAlign=middle;spacingTop=-1;spacingLeft=3;spacingRight=3;rotatable=0;labelPosition=right;points=[];portConstraint=eastwest;strokeColor=inherit;" vertex="1" parent="VnXQurNlEBm_rqx2Kqo_-22">
          <mxGeometry y="70" width="180" height="8" as="geometry" />
        </mxCell>
        <mxCell id="VnXQurNlEBm_rqx2Kqo_-26" value="ChannelDescription&lt;span style=&quot;background-color: initial;&quot;&gt;&amp;nbsp;&amp;lt;&amp;lt;entity&amp;gt;&amp;gt;&lt;/span&gt;" style="swimlane;fontStyle=1;align=center;verticalAlign=top;childLayout=stackLayout;horizontal=1;startSize=26;horizontalStack=0;resizeParent=1;resizeParentMax=0;resizeLast=0;collapsible=1;marginBottom=0;whiteSpace=wrap;html=1;" vertex="1" parent="1">
          <mxGeometry x="700" y="640" width="200" height="88" as="geometry" />
        </mxCell>
        <mxCell id="VnXQurNlEBm_rqx2Kqo_-27" value="start: Vertex&lt;div&gt;end: Vertex&lt;/div&gt;&lt;div&gt;throughput: Number&lt;/div&gt;" style="text;strokeColor=none;fillColor=none;align=left;verticalAlign=top;spacingLeft=4;spacingRight=4;overflow=hidden;rotatable=0;points=[[0,0.5],[1,0.5]];portConstraint=eastwest;whiteSpace=wrap;html=1;" vertex="1" parent="VnXQurNlEBm_rqx2Kqo_-26">
          <mxGeometry y="26" width="200" height="54" as="geometry" />
        </mxCell>
        <mxCell id="VnXQurNlEBm_rqx2Kqo_-28" value="" style="line;strokeWidth=1;fillColor=none;align=left;verticalAlign=middle;spacingTop=-1;spacingLeft=3;spacingRight=3;rotatable=0;labelPosition=right;points=[];portConstraint=eastwest;strokeColor=inherit;" vertex="1" parent="VnXQurNlEBm_rqx2Kqo_-26">
          <mxGeometry y="80" width="200" height="8" as="geometry" />
        </mxCell>
        <mxCell id="VnXQurNlEBm_rqx2Kqo_-30" value="Network &amp;lt;&amp;lt;entity&amp;gt;&amp;gt;" style="swimlane;fontStyle=1;align=center;verticalAlign=top;childLayout=stackLayout;horizontal=1;startSize=26;horizontalStack=0;resizeParent=1;resizeParentMax=0;resizeLast=0;collapsible=1;marginBottom=0;whiteSpace=wrap;html=1;" vertex="1" parent="1">
          <mxGeometry x="700" y="340" width="200" height="98" as="geometry" />
        </mxCell>
        <mxCell id="VnXQurNlEBm_rqx2Kqo_-31" value="vertices: Collection&amp;lt;Vertex&amp;gt;&lt;div&gt;edges: Collection&amp;lt;Edge&amp;gt;&lt;/div&gt;&lt;div&gt;channels: Collection&amp;lt;Channel&amp;gt;&lt;/div&gt;" style="text;strokeColor=none;fillColor=none;align=left;verticalAlign=top;spacingLeft=4;spacingRight=4;overflow=hidden;rotatable=0;points=[[0,0.5],[1,0.5]];portConstraint=eastwest;whiteSpace=wrap;html=1;" vertex="1" parent="VnXQurNlEBm_rqx2Kqo_-30">
          <mxGeometry y="26" width="200" height="64" as="geometry" />
        </mxCell>
        <mxCell id="VnXQurNlEBm_rqx2Kqo_-32" value="" style="line;strokeWidth=1;fillColor=none;align=left;verticalAlign=middle;spacingTop=-1;spacingLeft=3;spacingRight=3;rotatable=0;labelPosition=right;points=[];portConstraint=eastwest;strokeColor=inherit;" vertex="1" parent="VnXQurNlEBm_rqx2Kqo_-30">
          <mxGeometry y="90" width="200" height="8" as="geometry" />
        </mxCell>
        <mxCell id="VnXQurNlEBm_rqx2Kqo_-34" value="Vertex &amp;lt;&amp;lt;entity&amp;gt;&amp;gt;" style="swimlane;fontStyle=1;align=center;verticalAlign=top;childLayout=stackLayout;horizontal=1;startSize=26;horizontalStack=0;resizeParent=1;resizeParentMax=0;resizeLast=0;collapsible=1;marginBottom=0;whiteSpace=wrap;html=1;" vertex="1" parent="1">
          <mxGeometry x="970" y="180" width="190" height="88" as="geometry" />
        </mxCell>
        <mxCell id="VnXQurNlEBm_rqx2Kqo_-35" value="name: String&lt;div&gt;location: Location&lt;/div&gt;" style="text;strokeColor=none;fillColor=none;align=left;verticalAlign=top;spacingLeft=4;spacingRight=4;overflow=hidden;rotatable=0;points=[[0,0.5],[1,0.5]];portConstraint=eastwest;whiteSpace=wrap;html=1;" vertex="1" parent="VnXQurNlEBm_rqx2Kqo_-34">
          <mxGeometry y="26" width="190" height="54" as="geometry" />
        </mxCell>
        <mxCell id="VnXQurNlEBm_rqx2Kqo_-36" value="" style="line;strokeWidth=1;fillColor=none;align=left;verticalAlign=middle;spacingTop=-1;spacingLeft=3;spacingRight=3;rotatable=0;labelPosition=right;points=[];portConstraint=eastwest;strokeColor=inherit;" vertex="1" parent="VnXQurNlEBm_rqx2Kqo_-34">
          <mxGeometry y="80" width="190" height="8" as="geometry" />
        </mxCell>
        <mxCell id="VnXQurNlEBm_rqx2Kqo_-38" value="Edge &amp;lt;&amp;lt;entity&amp;gt;&amp;gt;" style="swimlane;fontStyle=1;align=center;verticalAlign=top;childLayout=stackLayout;horizontal=1;startSize=26;horizontalStack=0;resizeParent=1;resizeParentMax=0;resizeLast=0;collapsible=1;marginBottom=0;whiteSpace=wrap;html=1;" vertex="1" parent="1">
          <mxGeometry x="970" y="340" width="190" height="98" as="geometry" />
        </mxCell>
        <mxCell id="VnXQurNlEBm_rqx2Kqo_-39" value="a: Vertex&lt;div&gt;b: Vertex&lt;/div&gt;&lt;div&gt;slices: Collection&amp;lt;Slice, bool&amp;gt;&lt;/div&gt;" style="text;strokeColor=none;fillColor=none;align=left;verticalAlign=top;spacingLeft=4;spacingRight=4;overflow=hidden;rotatable=0;points=[[0,0.5],[1,0.5]];portConstraint=eastwest;whiteSpace=wrap;html=1;" vertex="1" parent="VnXQurNlEBm_rqx2Kqo_-38">
          <mxGeometry y="26" width="190" height="64" as="geometry" />
        </mxCell>
        <mxCell id="VnXQurNlEBm_rqx2Kqo_-40" value="" style="line;strokeWidth=1;fillColor=none;align=left;verticalAlign=middle;spacingTop=-1;spacingLeft=3;spacingRight=3;rotatable=0;labelPosition=right;points=[];portConstraint=eastwest;strokeColor=inherit;" vertex="1" parent="VnXQurNlEBm_rqx2Kqo_-38">
          <mxGeometry y="90" width="190" height="8" as="geometry" />
        </mxCell>
        <mxCell id="VnXQurNlEBm_rqx2Kqo_-42" value="Channel &amp;lt;&amp;lt;entity&amp;gt;&amp;gt;" style="swimlane;fontStyle=1;align=center;verticalAlign=top;childLayout=stackLayout;horizontal=1;startSize=26;horizontalStack=0;resizeParent=1;resizeParentMax=0;resizeLast=0;collapsible=1;marginBottom=0;whiteSpace=wrap;html=1;" vertex="1" parent="1">
          <mxGeometry x="970" y="520" width="190" height="78" as="geometry" />
        </mxCell>
        <mxCell id="VnXQurNlEBm_rqx2Kqo_-43" value="range: SliceRange&lt;div&gt;edges: Collection&amp;lt;Edge&amp;gt;&lt;/div&gt;" style="text;strokeColor=none;fillColor=none;align=left;verticalAlign=top;spacingLeft=4;spacingRight=4;overflow=hidden;rotatable=0;points=[[0,0.5],[1,0.5]];portConstraint=eastwest;whiteSpace=wrap;html=1;" vertex="1" parent="VnXQurNlEBm_rqx2Kqo_-42">
          <mxGeometry y="26" width="190" height="44" as="geometry" />
        </mxCell>
        <mxCell id="VnXQurNlEBm_rqx2Kqo_-44" value="" style="line;strokeWidth=1;fillColor=none;align=left;verticalAlign=middle;spacingTop=-1;spacingLeft=3;spacingRight=3;rotatable=0;labelPosition=right;points=[];portConstraint=eastwest;strokeColor=inherit;" vertex="1" parent="VnXQurNlEBm_rqx2Kqo_-42">
          <mxGeometry y="70" width="190" height="8" as="geometry" />
        </mxCell>
        <mxCell id="VnXQurNlEBm_rqx2Kqo_-46" value="Slice &amp;lt;&amp;lt;entity&amp;gt;&amp;gt;" style="swimlane;fontStyle=1;align=center;verticalAlign=top;childLayout=stackLayout;horizontal=1;startSize=26;horizontalStack=0;resizeParent=1;resizeParentMax=0;resizeLast=0;collapsible=1;marginBottom=0;whiteSpace=wrap;html=1;" vertex="1" parent="1">
          <mxGeometry x="1240" y="352" width="160" height="78" as="geometry" />
        </mxCell>
        <mxCell id="VnXQurNlEBm_rqx2Kqo_-47" value="frequencyLow: Number&lt;div&gt;frequencyHigh: Number&lt;/div&gt;" style="text;strokeColor=none;fillColor=none;align=left;verticalAlign=top;spacingLeft=4;spacingRight=4;overflow=hidden;rotatable=0;points=[[0,0.5],[1,0.5]];portConstraint=eastwest;whiteSpace=wrap;html=1;" vertex="1" parent="VnXQurNlEBm_rqx2Kqo_-46">
          <mxGeometry y="26" width="160" height="44" as="geometry" />
        </mxCell>
        <mxCell id="VnXQurNlEBm_rqx2Kqo_-48" value="" style="line;strokeWidth=1;fillColor=none;align=left;verticalAlign=middle;spacingTop=-1;spacingLeft=3;spacingRight=3;rotatable=0;labelPosition=right;points=[];portConstraint=eastwest;strokeColor=inherit;" vertex="1" parent="VnXQurNlEBm_rqx2Kqo_-46">
          <mxGeometry y="70" width="160" height="8" as="geometry" />
        </mxCell>
        <mxCell id="VnXQurNlEBm_rqx2Kqo_-50" value="SliceRange &amp;lt;&amp;lt;entity&amp;gt;&amp;gt;" style="swimlane;fontStyle=1;align=center;verticalAlign=top;childLayout=stackLayout;horizontal=1;startSize=26;horizontalStack=0;resizeParent=1;resizeParentMax=0;resizeLast=0;collapsible=1;marginBottom=0;whiteSpace=wrap;html=1;" vertex="1" parent="1">
          <mxGeometry x="1240" y="529" width="160" height="60" as="geometry" />
        </mxCell>
        <mxCell id="VnXQurNlEBm_rqx2Kqo_-51" value="slices: Collection&amp;lt;Slice&amp;gt;" style="text;strokeColor=none;fillColor=none;align=left;verticalAlign=top;spacingLeft=4;spacingRight=4;overflow=hidden;rotatable=0;points=[[0,0.5],[1,0.5]];portConstraint=eastwest;whiteSpace=wrap;html=1;" vertex="1" parent="VnXQurNlEBm_rqx2Kqo_-50">
          <mxGeometry y="26" width="160" height="26" as="geometry" />
        </mxCell>
        <mxCell id="VnXQurNlEBm_rqx2Kqo_-52" value="" style="line;strokeWidth=1;fillColor=none;align=left;verticalAlign=middle;spacingTop=-1;spacingLeft=3;spacingRight=3;rotatable=0;labelPosition=right;points=[];portConstraint=eastwest;strokeColor=inherit;" vertex="1" parent="VnXQurNlEBm_rqx2Kqo_-50">
          <mxGeometry y="52" width="160" height="8" as="geometry" />
        </mxCell>
        <mxCell id="VnXQurNlEBm_rqx2Kqo_-67" value="" style="endArrow=open;html=1;endSize=12;startArrow=diamondThin;startSize=14;startFill=0;edgeStyle=orthogonalEdgeStyle;align=left;verticalAlign=bottom;rounded=0;" edge="1" parent="1" source="VnXQurNlEBm_rqx2Kqo_-30" target="VnXQurNlEBm_rqx2Kqo_-34">
          <mxGeometry x="-1" y="3" relative="1" as="geometry">
            <mxPoint x="790" y="290" as="sourcePoint" />
            <mxPoint x="950" y="290" as="targetPoint" />
            <Array as="points">
              <mxPoint x="800" y="230" />
            </Array>
          </mxGeometry>
        </mxCell>
        <mxCell id="VnXQurNlEBm_rqx2Kqo_-72" value="*" style="edgeLabel;html=1;align=center;verticalAlign=middle;resizable=0;points=[];" vertex="1" connectable="0" parent="VnXQurNlEBm_rqx2Kqo_-67">
          <mxGeometry x="0.9136" relative="1" as="geometry">
            <mxPoint x="-9" y="-14" as="offset" />
          </mxGeometry>
        </mxCell>
        <mxCell id="VnXQurNlEBm_rqx2Kqo_-69" value="" style="endArrow=open;html=1;endSize=12;startArrow=diamondThin;startSize=14;startFill=0;edgeStyle=orthogonalEdgeStyle;align=left;verticalAlign=bottom;rounded=0;" edge="1" parent="1" source="VnXQurNlEBm_rqx2Kqo_-30" target="VnXQurNlEBm_rqx2Kqo_-38">
          <mxGeometry x="-1" y="3" relative="1" as="geometry">
            <mxPoint x="910" y="460" as="sourcePoint" />
            <mxPoint x="1070" y="460" as="targetPoint" />
          </mxGeometry>
        </mxCell>
        <mxCell id="VnXQurNlEBm_rqx2Kqo_-73" value="*" style="edgeLabel;html=1;align=center;verticalAlign=middle;resizable=0;points=[];" vertex="1" connectable="0" parent="VnXQurNlEBm_rqx2Kqo_-69">
          <mxGeometry x="0.6118" y="2" relative="1" as="geometry">
            <mxPoint x="-6" y="-9" as="offset" />
          </mxGeometry>
        </mxCell>
        <mxCell id="VnXQurNlEBm_rqx2Kqo_-70" value="" style="endArrow=open;html=1;endSize=12;startArrow=diamondThin;startSize=14;startFill=0;edgeStyle=orthogonalEdgeStyle;align=left;verticalAlign=bottom;rounded=0;" edge="1" parent="1" source="VnXQurNlEBm_rqx2Kqo_-30" target="VnXQurNlEBm_rqx2Kqo_-42">
          <mxGeometry x="-1" y="3" relative="1" as="geometry">
            <mxPoint x="790" y="480" as="sourcePoint" />
            <mxPoint x="950" y="480" as="targetPoint" />
            <Array as="points">
              <mxPoint x="800" y="559" />
            </Array>
          </mxGeometry>
        </mxCell>
        <mxCell id="VnXQurNlEBm_rqx2Kqo_-75" value="*" style="edgeLabel;html=1;align=center;verticalAlign=middle;resizable=0;points=[];" vertex="1" connectable="0" parent="VnXQurNlEBm_rqx2Kqo_-70">
          <mxGeometry x="0.9398" relative="1" as="geometry">
            <mxPoint x="-11" y="-9" as="offset" />
          </mxGeometry>
        </mxCell>
        <mxCell id="VnXQurNlEBm_rqx2Kqo_-71" value="" style="endArrow=open;html=1;endSize=12;startArrow=diamondThin;startSize=14;startFill=0;edgeStyle=orthogonalEdgeStyle;align=left;verticalAlign=bottom;rounded=0;" edge="1" parent="1" source="VnXQurNlEBm_rqx2Kqo_-42" target="VnXQurNlEBm_rqx2Kqo_-38">
          <mxGeometry x="-1" y="3" relative="1" as="geometry">
            <mxPoint x="1020" y="478" as="sourcePoint" />
            <mxPoint x="1180" y="478" as="targetPoint" />
          </mxGeometry>
        </mxCell>
        <mxCell id="VnXQurNlEBm_rqx2Kqo_-76" value="1..*" style="edgeLabel;html=1;align=center;verticalAlign=middle;resizable=0;points=[];" vertex="1" connectable="0" parent="VnXQurNlEBm_rqx2Kqo_-71">
          <mxGeometry x="0.7471" y="-2" relative="1" as="geometry">
            <mxPoint x="13" as="offset" />
          </mxGeometry>
        </mxCell>
        <mxCell id="VnXQurNlEBm_rqx2Kqo_-77" value="" style="endArrow=open;html=1;endSize=12;startArrow=diamondThin;startSize=14;startFill=0;edgeStyle=orthogonalEdgeStyle;align=left;verticalAlign=bottom;rounded=0;" edge="1" parent="1" source="VnXQurNlEBm_rqx2Kqo_-38" target="VnXQurNlEBm_rqx2Kqo_-34">
          <mxGeometry x="-0.7222" y="15" relative="1" as="geometry">
            <mxPoint x="960" y="330" as="sourcePoint" />
            <mxPoint x="1120" y="330" as="targetPoint" />
            <mxPoint as="offset" />
          </mxGeometry>
        </mxCell>
        <mxCell id="VnXQurNlEBm_rqx2Kqo_-78" value="2" style="edgeLabel;html=1;align=center;verticalAlign=middle;resizable=0;points=[];" vertex="1" connectable="0" parent="VnXQurNlEBm_rqx2Kqo_-77">
          <mxGeometry x="0.8596" y="1" relative="1" as="geometry">
            <mxPoint x="16" y="7" as="offset" />
          </mxGeometry>
        </mxCell>
        <mxCell id="VnXQurNlEBm_rqx2Kqo_-83" value="" style="endArrow=open;html=1;endSize=12;startArrow=diamondThin;startSize=14;startFill=1;edgeStyle=orthogonalEdgeStyle;align=left;verticalAlign=bottom;rounded=0;" edge="1" parent="1" source="VnXQurNlEBm_rqx2Kqo_-42" target="VnXQurNlEBm_rqx2Kqo_-50">
          <mxGeometry x="-1" y="3" relative="1" as="geometry">
            <mxPoint x="1110" y="480" as="sourcePoint" />
            <mxPoint x="1270" y="480" as="targetPoint" />
          </mxGeometry>
        </mxCell>
        <mxCell id="VnXQurNlEBm_rqx2Kqo_-84" value="" style="endArrow=open;html=1;endSize=12;startArrow=diamondThin;startSize=14;startFill=0;edgeStyle=orthogonalEdgeStyle;align=left;verticalAlign=bottom;rounded=0;" edge="1" parent="1" source="VnXQurNlEBm_rqx2Kqo_-50" target="VnXQurNlEBm_rqx2Kqo_-46">
          <mxGeometry x="-1" y="-10" relative="1" as="geometry">
            <mxPoint x="1050" y="460" as="sourcePoint" />
            <mxPoint x="1210" y="460" as="targetPoint" />
            <mxPoint y="1" as="offset" />
          </mxGeometry>
        </mxCell>
        <mxCell id="VnXQurNlEBm_rqx2Kqo_-85" value="1..96" style="edgeLabel;html=1;align=center;verticalAlign=middle;resizable=0;points=[];" vertex="1" connectable="0" parent="VnXQurNlEBm_rqx2Kqo_-84">
          <mxGeometry x="0.8224" y="-1" relative="1" as="geometry">
            <mxPoint x="19" y="-1" as="offset" />
          </mxGeometry>
        </mxCell>
        <mxCell id="VnXQurNlEBm_rqx2Kqo_-86" value="" style="endArrow=open;html=1;endSize=12;startArrow=diamondThin;startSize=14;startFill=0;edgeStyle=orthogonalEdgeStyle;align=left;verticalAlign=bottom;rounded=0;exitX=1.001;exitY=0.377;exitDx=0;exitDy=0;exitPerimeter=0;" edge="1" parent="1" source="VnXQurNlEBm_rqx2Kqo_-39" target="VnXQurNlEBm_rqx2Kqo_-46">
          <mxGeometry x="-1" y="3" relative="1" as="geometry">
            <mxPoint x="1020" y="510" as="sourcePoint" />
            <mxPoint x="1180" y="510" as="targetPoint" />
            <Array as="points">
              <mxPoint x="1230" y="391" />
              <mxPoint x="1230" y="391" />
            </Array>
          </mxGeometry>
        </mxCell>
        <mxCell id="VnXQurNlEBm_rqx2Kqo_-87" value="96" style="edgeLabel;html=1;align=center;verticalAlign=middle;resizable=0;points=[];" vertex="1" connectable="0" parent="VnXQurNlEBm_rqx2Kqo_-86">
          <mxGeometry x="0.7062" relative="1" as="geometry">
            <mxPoint y="-13" as="offset" />
          </mxGeometry>
        </mxCell>
      </root>
    </mxGraphModel>
  </diagram>
</mxfile>
